<svg width="100" height="100" viewBox="0 0 100 100" fill="none" xmlns="http://www.w3.org/2000/svg">
<path d="M15.0005 58.6603C8.33382 54.8113 8.33382 45.1888 15.0005 41.3398L60.0005 15.359C66.6671 11.51 75.0005 16.3212 75.0005 24.0192V75.9808C75.0005 83.6788 66.6671 88.49 60.0005 84.641L15.0005 58.6603Z" fill="#9747FF" fill-opacity="0.2"/>
<path d="M55.2818 79.1798C55.6059 77.7576 55.7632 76.3025 55.7506 74.8439C55.6724 64.5118 47.1178 56.1525 36.8053 56.2501C32.3997 56.2966 28.1511 57.893 24.8051 60.7592C21.459 63.6254 19.2292 67.5784 18.5067 71.9246C17.7843 76.2708 18.6155 80.7326 20.8544 84.5272C23.0933 88.3218 26.5969 91.2067 30.7506 92.6759C31.4571 92.9304 32.2147 93.0107 32.9589 92.91C33.7032 92.8092 34.4121 92.5304 35.0255 92.0971C35.639 91.6639 36.1388 91.089 36.4827 90.4213C36.8265 89.7536 37.0042 89.0128 37.0006 88.2618V87.5001C36.998 86.8838 37.1175 86.2731 37.3521 85.7032C37.5868 85.1334 37.932 84.6156 38.3678 84.1798C38.8035 83.744 39.3213 83.3988 39.8912 83.1642C40.4611 82.9295 41.0718 82.81 41.6881 82.8126H50.7115C51.7719 82.8133 52.8012 82.4544 53.6313 81.7946C54.4614 81.1348 55.0432 80.213 55.2818 79.1798V79.1798Z" stroke="#9747FF" stroke-width="2" stroke-linecap="round" stroke-linejoin="round"/>
<path d="M37.0005 67.1875C38.2949 67.1875 39.3442 66.1382 39.3442 64.8438C39.3442 63.5493 38.2949 62.5 37.0005 62.5C35.7061 62.5 34.6567 63.5493 34.6567 64.8438C34.6567 66.1382 35.7061 67.1875 37.0005 67.1875Z" fill="#9747FF"/>
<path d="M28.2114 72.2656C29.5058 72.2656 30.5552 71.2163 30.5552 69.9219C30.5552 68.6275 29.5058 67.5781 28.2114 67.5781C26.917 67.5781 25.8677 68.6275 25.8677 69.9219C25.8677 71.2163 26.917 72.2656 28.2114 72.2656Z" fill="#9747FF"/>
<path d="M28.2114 82.4219C29.5058 82.4219 30.5552 81.3725 30.5552 80.0781C30.5552 78.7837 29.5058 77.7344 28.2114 77.7344C26.917 77.7344 25.8677 78.7837 25.8677 80.0781C25.8677 81.3725 26.917 82.4219 28.2114 82.4219Z" fill="#9747FF"/>
<path d="M45.7896 72.2656C47.084 72.2656 48.1333 71.2163 48.1333 69.9219C48.1333 68.6275 47.084 67.5781 45.7896 67.5781C44.4951 67.5781 43.4458 68.6275 43.4458 69.9219C43.4458 71.2163 44.4951 72.2656 45.7896 72.2656Z" fill="#9747FF"/>
</svg>
