<svg width="100" height="100" viewBox="0 0 100 100" fill="none" xmlns="http://www.w3.org/2000/svg">
<path d="M15.0005 58.6603C8.33382 54.8113 8.33382 45.1888 15.0005 41.3398L60.0005 15.359C66.6671 11.51 75.0005 16.3212 75.0005 24.0192V75.9808C75.0005 83.6788 66.6671 88.49 60.0005 84.641L15.0005 58.6603Z" fill="#DAE8FF"/>
<path d="M45.375 51.25V70L39.125 65.3125L32.875 70V51.25" stroke="#003CA3" stroke-width="2" stroke-linecap="round" stroke-linejoin="round"/>
<path d="M20.375 87.1875C20.3725 86.5712 20.4919 85.9605 20.7266 85.3907C20.9612 84.8208 21.3064 84.303 21.7422 83.8672C22.178 83.4314 22.6958 83.0862 23.2657 82.8516C23.8355 82.6169 24.4462 82.4975 25.0625 82.5H51.625V51.25H25.0625C24.4462 51.2475 23.8355 51.3669 23.2657 51.6016C22.6958 51.8362 22.178 52.1814 21.7422 52.6172C21.3064 53.053 20.9612 53.5708 20.7266 54.1407C20.4919 54.7105 20.3725 55.3212 20.375 55.9375V87.1875Z" stroke="#003CA3" stroke-width="2" stroke-linecap="round" stroke-linejoin="round"/>
<path d="M20.375 87.1875V88.75H48.5" stroke="#003CA3" stroke-width="2" stroke-linecap="round" stroke-linejoin="round"/>
</svg>
