<svg width="100" height="100" viewBox="0 0 100 100" fill="none" xmlns="http://www.w3.org/2000/svg">
<path d="M15.0005 58.6603C8.33382 54.8113 8.33382 45.1888 15.0005 41.3398L60.0005 15.359C66.6671 11.51 75.0005 16.3212 75.0005 24.0192V75.9808C75.0005 83.6788 66.6671 88.49 60.0005 84.641L15.0005 58.6603Z" fill="#CEFFEA"/>
<path d="M25.6255 68.75L33.438 75L25.6255 81.25" stroke="#426E5B" stroke-width="2" stroke-linecap="round" stroke-linejoin="round"/>
<path d="M36.563 81.25H44.3755" stroke="#426E5B" stroke-width="2" stroke-linecap="round" stroke-linejoin="round"/>
<path d="M52.0903 59.375H17.9106C16.9938 59.375 16.2505 60.1183 16.2505 61.0352V88.9648C16.2505 89.8817 16.9938 90.625 17.9106 90.625H52.0903C53.0072 90.625 53.7505 89.8817 53.7505 88.9648V61.0352C53.7505 60.1183 53.0072 59.375 52.0903 59.375Z" stroke="#426E5B" stroke-width="2.12125" stroke-linecap="round" stroke-linejoin="round"/>
</svg>
