<svg width="100" height="100" viewBox="0 0 100 100" fill="none" xmlns="http://www.w3.org/2000/svg">
<path d="M15.0005 58.6603C8.33382 54.8113 8.33382 45.1888 15.0005 41.3398L60.0005 15.359C66.6671 11.51 75.0005 16.3212 75.0005 24.0192V75.9808C75.0005 83.6788 66.6671 88.49 60.0005 84.641L15.0005 58.6603Z" fill="#FFF0E3"/>
<path d="M3.5625 60.75L27 48.25L50.4375 60.75L27 73.25L3.5625 60.75Z" stroke="#E2A36B" stroke-width="2" stroke-linecap="round" stroke-linejoin="round"/>
<path d="M38.7188 88.875V67L27 60.75" stroke="#E2A36B" stroke-width="2" stroke-linecap="round" stroke-linejoin="round"/>
<path d="M44.9688 63.6602V74.3242C44.9673 74.6561 44.8576 74.9784 44.6562 75.2422C43.3477 77 37.8008 83.4062 27 83.4062C16.1992 83.4062 10.6523 77 9.34375 75.2422C9.14238 74.9784 9.03265 74.6561 9.03125 74.3242V63.6602" stroke="#E2A36B" stroke-width="2" stroke-linecap="round" stroke-linejoin="round"/>
</svg>
