<svg width="100" height="100" viewBox="0 0 100 100" fill="none" xmlns="http://www.w3.org/2000/svg">
<path d="M15.0005 58.6566C8.33382 54.8076 8.33382 45.1851 15.0005 41.3361L60.0005 15.3553C66.6671 11.5063 75.0005 16.3176 75.0005 24.0156V75.9771C75.0005 83.6751 66.6671 88.4864 60.0005 84.6374L15.0005 58.6566Z" fill="#BFF0FF"/>
<path d="M25.6255 57.8088H19.3755C18.5125 57.8088 17.813 58.5084 17.813 59.3713V90.6213C17.813 91.4843 18.5125 92.1838 19.3755 92.1838H25.6255C26.4884 92.1838 27.188 91.4843 27.188 90.6213V59.3713C27.188 58.5084 26.4884 57.8088 25.6255 57.8088Z" stroke="#36C5F0" stroke-width="2" stroke-linecap="round" stroke-linejoin="round"/>
<path d="M17.813 65.6213H27.188" stroke="#36C5F0" stroke-width="2" stroke-linecap="round" stroke-linejoin="round"/>
<path d="M35.0005 57.8088H28.7505C27.8875 57.8088 27.188 58.5084 27.188 59.3713V90.6213C27.188 91.4843 27.8875 92.1838 28.7505 92.1838H35.0005C35.8634 92.1838 36.563 91.4843 36.563 90.6213V59.3713C36.563 58.5084 35.8634 57.8088 35.0005 57.8088Z" stroke="#36C5F0" stroke-width="2" stroke-linecap="round" stroke-linejoin="round"/>
<path d="M27.188 84.3713H36.563" stroke="#36C5F0" stroke-width="2" stroke-linecap="round" stroke-linejoin="round"/>
<path d="M44.2847 57.2976L38.2222 58.9226C37.3851 59.147 36.8884 60.0074 37.1128 60.8445L45.2378 91.157C45.4622 91.994 46.3226 92.4907 47.1597 92.2664L53.2222 90.6414C54.0592 90.417 54.5559 89.5565 54.3315 88.7195L46.2065 58.407C45.9822 57.5699 45.1217 57.0732 44.2847 57.2976Z" stroke="#36C5F0" stroke-width="2.00848" stroke-linecap="round" stroke-linejoin="round"/>
<path d="M43.438 84.9963L52.5005 82.5549" stroke="#36C5F0" stroke-width="2" stroke-linecap="round" stroke-linejoin="round"/>
<path d="M38.5942 66.8713L47.6567 64.4495" stroke="#36C5F0" stroke-width="2" stroke-linecap="round" stroke-linejoin="round"/>
</svg>
