<svg width="100" height="100" viewBox="0 0 100 100" fill="none" xmlns="http://www.w3.org/2000/svg">
<path d="M15.0005 58.6603C8.33382 54.8113 8.33382 45.1888 15.0005 41.3398L60.0005 15.359C66.6671 11.51 75.0005 16.3212 75.0005 24.0192V75.9808C75.0005 83.6788 66.6671 88.49 60.0005 84.641L15.0005 58.6603Z" fill="#ECB22E" fill-opacity="0.2"/>
<path d="M52.188 59.0625H17.813C16.95 59.0625 16.2505 59.7621 16.2505 60.625V85.625C16.2505 86.4879 16.95 87.1875 17.813 87.1875H52.188C53.0509 87.1875 53.7505 86.4879 53.7505 85.625V60.625C53.7505 59.7621 53.0509 59.0625 52.188 59.0625Z" stroke="#ECB22E" stroke-width="2" stroke-linecap="round" stroke-linejoin="round"/>
<path d="M42.813 59.0625V55.9375C42.813 55.1087 42.4837 54.3138 41.8977 53.7278C41.3116 53.1417 40.5168 52.8125 39.688 52.8125H30.313C29.4842 52.8125 28.6893 53.1417 28.1033 53.7278C27.5172 54.3138 27.188 55.1087 27.188 55.9375V59.0625" stroke="#ECB22E" stroke-width="2" stroke-linecap="round" stroke-linejoin="round"/>
<path d="M53.7505 69.668C48.0518 72.9637 41.5835 74.6953 35.0005 74.6875C28.4162 74.7046 21.9456 72.9724 16.2505 69.668" stroke="#ECB22E" stroke-width="2" stroke-linecap="round" stroke-linejoin="round"/>
<path d="M32.6567 68.4375H37.3442" stroke="#ECB22E" stroke-width="2" stroke-linecap="round" stroke-linejoin="round"/>
</svg>
