<svg width="100" height="100" viewBox="0 0 100 100" fill="none" xmlns="http://www.w3.org/2000/svg">
<path d="M15.0005 58.6603C8.33382 54.8113 8.33382 45.1888 15.0005 41.3398L60.0005 15.359C66.6671 11.51 75.0005 16.3212 75.0005 24.0192V75.9808C75.0005 83.6788 66.6671 88.49 60.0005 84.641L15.0005 58.6603Z" fill="#FFE4DA"/>
<path d="M42.375 54.5H23.625V63.875H42.375V54.5Z" stroke="#FF500A" stroke-width="2" stroke-linecap="round" stroke-linejoin="round"/>
<path d="M48.625 84.1875V49.8125C48.625 48.9496 47.9254 48.25 47.0625 48.25H18.9375C18.0746 48.25 17.375 48.9496 17.375 49.8125L17.375 84.1875C17.375 85.0504 18.0746 85.75 18.9375 85.75H47.0625C47.9254 85.75 48.625 85.0504 48.625 84.1875Z" stroke="#FF500A" stroke-width="2" stroke-linecap="round" stroke-linejoin="round"/>
<path d="M25.1875 73.25C26.4819 73.25 27.5312 72.2007 27.5312 70.9062C27.5312 69.6118 26.4819 68.5625 25.1875 68.5625C23.8931 68.5625 22.8438 69.6118 22.8438 70.9062C22.8438 72.2007 23.8931 73.25 25.1875 73.25Z" fill="#FF500A"/>
<path d="M33 73.25C34.2944 73.25 35.3438 72.2007 35.3438 70.9062C35.3438 69.6118 34.2944 68.5625 33 68.5625C31.7056 68.5625 30.6562 69.6118 30.6562 70.9062C30.6562 72.2007 31.7056 73.25 33 73.25Z" fill="#FF500A"/>
<path d="M40.8125 73.25C42.1069 73.25 43.1562 72.2007 43.1562 70.9062C43.1562 69.6118 42.1069 68.5625 40.8125 68.5625C39.5181 68.5625 38.4688 69.6118 38.4688 70.9062C38.4688 72.2007 39.5181 73.25 40.8125 73.25Z" fill="#FF500A"/>
<path d="M25.1875 81.0625C26.4819 81.0625 27.5312 80.0132 27.5312 78.7188C27.5312 77.4243 26.4819 76.375 25.1875 76.375C23.8931 76.375 22.8438 77.4243 22.8438 78.7188C22.8438 80.0132 23.8931 81.0625 25.1875 81.0625Z" fill="#FF500A"/>
<path d="M33 81.0625C34.2944 81.0625 35.3438 80.0132 35.3438 78.7188C35.3438 77.4243 34.2944 76.375 33 76.375C31.7056 76.375 30.6562 77.4243 30.6562 78.7188C30.6562 80.0132 31.7056 81.0625 33 81.0625Z" fill="#FF500A"/>
<path d="M40.8125 81.0625C42.1069 81.0625 43.1562 80.0132 43.1562 78.7188C43.1562 77.4243 42.1069 76.375 40.8125 76.375C39.5181 76.375 38.4688 77.4243 38.4688 78.7188C38.4688 80.0132 39.5181 81.0625 40.8125 81.0625Z" fill="#FF500A"/>
</svg>
