<svg width="100" height="100" viewBox="0 0 100 100" fill="none" xmlns="http://www.w3.org/2000/svg">
<path d="M15.0005 58.6603C8.33382 54.8113 8.33382 45.1888 15.0005 41.3398L60.0005 15.359C66.6671 11.51 75.0005 16.3212 75.0005 24.0192V75.9808C75.0005 83.6788 66.6671 88.49 60.0005 84.641L15.0005 58.6603Z" fill="#35485B" fill-opacity="0.28"/>
<path d="M46.1567 85.0625C49.177 85.0625 51.6255 82.6141 51.6255 79.5938C51.6255 76.5734 49.177 74.125 46.1567 74.125C43.1364 74.125 40.688 76.5734 40.688 79.5938C40.688 82.6141 43.1364 85.0625 46.1567 85.0625Z" stroke="#35485B" stroke-width="2" stroke-linecap="round" stroke-linejoin="round"/>
<path d="M21.1567 91.3125C24.177 91.3125 26.6255 88.8641 26.6255 85.8438C26.6255 82.8234 24.177 80.375 21.1567 80.375C18.1364 80.375 15.688 82.8234 15.688 85.8438C15.688 88.8641 18.1364 91.3125 21.1567 91.3125Z" stroke="#35485B" stroke-width="2" stroke-linecap="round" stroke-linejoin="round"/>
<path d="M51.6255 61.625L26.6255 67.875" stroke="#35485B" stroke-width="2" stroke-linecap="round" stroke-linejoin="round"/>
<path d="M26.6255 85.8438V58.5L51.6255 52.25V79.5938" stroke="#35485B" stroke-width="2" stroke-linecap="round" stroke-linejoin="round"/>
</svg>
