<svg width="24" height="24" viewBox="0 0 24 24" fill="none" xmlns="http://www.w3.org/2000/svg">
<mask id="mask0_274_891" style="mask-type:luminance" maskUnits="userSpaceOnUse" x="0" y="0" width="24" height="24">
<path d="M18 0H6C2.68629 0 0 2.68629 0 6V18C0 21.3137 2.68629 24 6 24H18C21.3137 24 24 21.3137 24 18V6C24 2.68629 21.3137 0 18 0Z" fill="white"/>
</mask>
<g mask="url(#mask0_274_891)">
<path fill-rule="evenodd" clip-rule="evenodd" d="M23.52 12.2729C23.52 11.4219 23.444 10.6039 23.302 9.81787H12V14.4599H18.458C18.18 15.9599 17.335 17.2309 16.064 18.0819V21.0929H19.942C22.211 19.0039 23.52 15.9269 23.52 12.2729Z" fill="#4285F4"/>
<path fill-rule="evenodd" clip-rule="evenodd" d="M11.9999 24C15.2399 24 17.9559 22.925 19.9419 21.093L16.0639 18.082C14.9889 18.802 13.6149 19.227 11.9999 19.227C8.87488 19.227 6.22885 17.116 5.28485 14.28H1.27588V17.389C3.25088 21.311 7.30888 24 11.9999 24Z" fill="#34A853"/>
<path fill-rule="evenodd" clip-rule="evenodd" d="M5.28497 14.2801C5.04497 13.5601 4.909 12.7911 4.909 12.0001C4.909 11.2091 5.04497 10.4401 5.28497 9.72009V6.61108H1.276C0.464001 8.23108 0 10.0641 0 12.0001C0 13.9361 0.464001 15.7691 1.276 17.3891L5.28497 14.2801Z" fill="#FBBC05"/>
<path fill-rule="evenodd" clip-rule="evenodd" d="M11.9999 4.77299C13.7619 4.77299 15.3439 5.378 16.5869 6.567L20.0289 3.125C17.9509 1.189 15.2349 0 11.9999 0C7.30888 0 3.25088 2.68899 1.27588 6.61099L5.28485 9.72C6.22885 6.884 8.87488 4.77299 11.9999 4.77299Z" fill="#EA4335"/>
</g>
</svg>
