<svg width="39" height="39" viewBox="0 0 39 39" fill="none" xmlns="http://www.w3.org/2000/svg">
<path d="M36.9164 27.4166C36.9164 32.6574 32.6573 36.9166 27.4164 36.9166V34.5416C31.3748 34.5416 34.5414 31.3749 34.5414 27.4166H36.9164ZM2.08311 11.5833C2.08311 6.34242 6.34228 2.08325 11.5831 2.08325V4.45825C7.62478 4.45825 4.45811 7.62492 4.45811 11.5833H2.08311ZM13.1664 7.33992L5.89895 14.6233C0.800612 19.7216 0.800612 28.0024 5.89895 33.1008C10.9973 38.1991 19.2781 38.1991 24.3764 33.1008L35.5706 21.8749C36.3464 21.1308 36.3464 19.8799 35.5706 19.1041C35.3868 18.9198 35.1684 18.7735 34.9279 18.6738C34.6875 18.574 34.4297 18.5226 34.1694 18.5226C33.909 18.5226 33.6513 18.574 33.4108 18.6738C33.1704 18.7735 32.952 18.9198 32.7681 19.1041L25.7698 26.1024L24.6456 24.9783L35.0006 14.6233C35.7764 13.8474 35.7764 12.5966 35.0006 11.8208C34.2248 11.0449 32.9581 11.0449 32.1664 11.8208L22.9673 21.0833L21.8748 19.9274L32.7523 9.01825C33.5281 8.24242 33.5281 6.99159 32.7523 6.21575C31.9764 5.43992 30.7256 5.43992 29.9498 6.21575L19.0406 17.1249L17.9164 16.0166L26.6248 7.33992C27.4164 6.56409 27.4164 5.31325 26.6248 4.53742C25.8331 3.76159 24.5981 3.76159 23.8223 4.53742L11.7573 16.6024C12.7029 17.8206 13.1716 19.342 13.0754 20.8811C12.9792 22.4203 12.3248 23.8715 11.2348 24.9624L10.1106 23.8383C11.0001 22.9476 11.4998 21.7403 11.4998 20.4816C11.4998 19.2228 11.0001 18.0155 10.1106 17.1249L9.55644 16.5708L16.0006 10.1266C16.7764 9.35075 16.7764 8.09992 16.0006 7.32409C15.2089 6.56409 13.9581 6.56409 13.1664 7.33992Z" fill="#7DC185"/>
</svg>
