<svg width="19" height="17" viewBox="0 0 19 17" fill="none" xmlns="http://www.w3.org/2000/svg">
<path d="M11.6075 6.39209C11.0665 5.85009 10.3246 5.51709 9.49957 5.51709C7.84957 5.51709 6.5166 6.85009 6.5166 8.50009" stroke="#7C8996" stroke-width="1.5" stroke-linecap="round" stroke-linejoin="round"/>
<path d="M14.3502 3.30792C12.8922 2.20792 11.2252 1.60791 9.50018 1.60791C6.55818 1.60791 3.8172 3.34192 1.9082 6.34192C1.1582 7.51692 1.1582 9.4919 1.9082 10.6669C2.5672 11.6999 3.33318 12.5919 4.16718 13.3079" stroke="#7C8996" stroke-width="1.5" stroke-linecap="round" stroke-linejoin="round"/>
<path d="M6.5166 14.7749C7.4666 15.1749 8.47457 15.3919 9.49957 15.3919C12.4416 15.3919 15.1826 13.6579 17.0916 10.6579C17.8416 9.4829 17.8416 7.50792 17.0916 6.33292C16.8166 5.89992 16.5166 5.49191 16.2076 5.10791" stroke="#7C8996" stroke-width="1.5" stroke-linecap="round" stroke-linejoin="round"/>
<path d="M12.4252 9.08301C12.2092 10.258 11.2502 11.217 10.0752 11.433" stroke="#7C8996" stroke-width="1.5" stroke-linecap="round" stroke-linejoin="round"/>
</svg>
