<svg width="54" height="54" viewBox="0 0 54 54" fill="none" xmlns="http://www.w3.org/2000/svg">
<path d="M45.5625 30.375C46.0195 30.375 46.415 30.542 46.749 30.876C47.083 31.21 47.25 31.6055 47.25 32.0625C47.25 32.5195 47.083 32.915 46.749 33.249C46.415 33.583 46.0195 33.75 45.5625 33.75C45.1055 33.75 44.71 33.583 44.376 33.249C44.042 32.915 43.875 32.5195 43.875 32.0625C43.875 31.6055 44.042 31.21 44.376 30.876C44.71 30.542 45.1055 30.375 45.5625 30.375ZM29.6631 29.874C28.2744 28.9248 26.7803 28.2129 25.1807 27.7383C23.5811 27.2637 21.9375 27.0176 20.25 27C18.7031 27 17.209 27.2021 15.7676 27.6064C14.3262 28.0107 12.9814 28.5732 11.7334 29.2939C10.4854 30.0146 9.35156 30.8936 8.33203 31.9307C7.3125 32.9678 6.43359 34.1104 5.69531 35.3584C4.95703 36.6064 4.38574 37.9512 3.98145 39.3926C3.57715 40.834 3.375 42.3281 3.375 43.875H0C0 41.8184 0.307617 39.8057 0.922852 37.8369C1.53809 35.8682 2.42578 34.0488 3.58594 32.3789C4.74609 30.709 6.12598 29.2236 7.72559 27.9229C9.3252 26.6221 11.1094 25.6289 13.0781 24.9434C12.0938 24.3105 11.2148 23.5811 10.4414 22.7549C9.66797 21.9287 9 21.0234 8.4375 20.0391C7.875 19.0547 7.46191 18.0176 7.19824 16.9277C6.93457 15.8379 6.78516 14.6953 6.75 13.5C6.75 11.6367 7.10156 9.8877 7.80469 8.25293C8.50781 6.61816 9.46582 5.18555 10.6787 3.95508C11.8916 2.72461 13.3242 1.75781 14.9766 1.05469C16.6289 0.351563 18.3867 0 20.25 0C22.1133 0 23.8623 0.351563 25.4971 1.05469C27.1318 1.75781 28.5645 2.71582 29.7949 3.92871C31.0254 5.1416 31.9922 6.57422 32.6953 8.22656C33.3984 9.87891 33.75 11.6367 33.75 13.5C33.75 14.6777 33.6094 15.8115 33.3281 16.9014C33.0469 17.9912 32.625 19.0371 32.0625 20.0391C31.5 21.041 30.8408 21.9463 30.085 22.7549C29.3291 23.5635 28.4414 24.293 27.4219 24.9434C28.8457 25.4531 30.2168 26.1562 31.5352 27.0527L29.6631 29.874ZM10.125 13.5C10.125 14.9062 10.3887 16.2158 10.916 17.4287C11.4434 18.6416 12.1641 19.7139 13.0781 20.6455C13.9922 21.5771 15.0645 22.3066 16.2949 22.834C17.5254 23.3613 18.8438 23.625 20.25 23.625C21.6387 23.625 22.9482 23.3613 24.1787 22.834C25.4092 22.3066 26.4814 21.5859 27.3955 20.6719C28.3096 19.7578 29.0391 18.6855 29.584 17.4551C30.1289 16.2246 30.3926 14.9062 30.375 13.5C30.375 12.1113 30.1113 10.8018 29.584 9.57129C29.0566 8.34082 28.3359 7.26855 27.4219 6.35449C26.5078 5.44043 25.4268 4.71094 24.1787 4.16602C22.9307 3.62109 21.6211 3.35742 20.25 3.375C18.8438 3.375 17.5342 3.63867 16.3213 4.16602C15.1084 4.69336 14.0361 5.41406 13.1045 6.32812C12.1729 7.24219 11.4434 8.32324 10.916 9.57129C10.3887 10.8193 10.125 12.1289 10.125 13.5ZM43.875 23.625C45.2637 23.625 46.5732 23.8887 47.8037 24.416C49.0342 24.9434 50.1064 25.6641 51.0205 26.5781C51.9346 27.4922 52.6641 28.5732 53.209 29.8213C53.7539 31.0693 54.0176 32.3789 54 33.75C54 35.1562 53.7363 36.4658 53.209 37.6787C52.6816 38.8916 51.9609 39.9639 51.0469 40.8955C50.1328 41.8271 49.0518 42.5566 47.8037 43.084C46.5557 43.6113 45.2461 43.875 43.875 43.875C42.7324 43.875 41.6074 43.6729 40.5 43.2686V47.25H37.125V50.625H33.75V54H23.625V46.5645L34.04 36.123C33.8467 35.3145 33.75 34.5234 33.75 33.75C33.75 32.3613 34.0137 31.0518 34.541 29.8213C35.0684 28.5908 35.7891 27.5186 36.7031 26.6045C37.6172 25.6904 38.6895 24.9609 39.9199 24.416C41.1504 23.8711 42.4688 23.6074 43.875 23.625ZM43.875 40.5C44.8066 40.5 45.6768 40.3242 46.4854 39.9727C47.2939 39.6211 48.0146 39.1377 48.6475 38.5225C49.2803 37.9072 49.7637 37.1953 50.0977 36.3867C50.4316 35.5781 50.6074 34.6992 50.625 33.75C50.625 32.8184 50.4492 31.9482 50.0977 31.1396C49.7461 30.3311 49.2627 29.6104 48.6475 28.9775C48.0322 28.3447 47.3203 27.8613 46.5117 27.5273C45.7031 27.1934 44.8242 27.0176 43.875 27C42.9434 27 42.0732 27.1758 41.2646 27.5273C40.4561 27.8789 39.7354 28.3623 39.1025 28.9775C38.4697 29.5928 37.9863 30.3047 37.6523 31.1133C37.3184 31.9219 37.1426 32.8008 37.125 33.75C37.125 34.3652 37.2041 34.9277 37.3623 35.4375C37.5205 35.9473 37.7051 36.4834 37.916 37.0459L27 47.9355V50.625H30.375V47.25H33.75V43.875H37.125V41.4756L39.5771 39.0498C40.2803 39.4541 40.957 39.7969 41.6074 40.0781C42.2578 40.3594 43.0137 40.5 43.875 40.5Z" fill="#7DC185"/>
</svg>
