<svg width="19" height="19" viewBox="0 0 19 19" fill="none" xmlns="http://www.w3.org/2000/svg">
<path d="M7.39203 11.6079L1.16699 17.8329" stroke="#7C8996" stroke-width="1.5" stroke-linecap="round" stroke-linejoin="round"/>
<path d="M11.6075 7.39209L7.3916 11.6081C6.8496 11.0671 6.5166 10.3251 6.5166 9.50009C6.5166 7.85009 7.84957 6.51709 9.49957 6.51709C10.3246 6.51709 11.0665 6.85009 11.6075 7.39209Z" stroke="#7C8996" stroke-width="1.5" stroke-linecap="round" stroke-linejoin="round"/>
<path d="M14.3502 4.30792C12.8922 3.20792 11.2252 2.60791 9.50018 2.60791C6.55818 2.60791 3.8172 4.34192 1.9082 7.34192C1.1582 8.51692 1.1582 10.4919 1.9082 11.6669C2.5672 12.6999 3.33318 13.5919 4.16718 14.3079" stroke="#7C8996" stroke-width="1.5" stroke-linecap="round" stroke-linejoin="round"/>
<path d="M6.5166 15.7749C7.4666 16.1749 8.47457 16.3919 9.49957 16.3919C12.4416 16.3919 15.1826 14.6579 17.0916 11.6579C17.8416 10.4829 17.8416 8.50792 17.0916 7.33292C16.8166 6.89992 16.5166 6.49191 16.2076 6.10791" stroke="#7C8996" stroke-width="1.5" stroke-linecap="round" stroke-linejoin="round"/>
<path d="M12.4252 10.083C12.2092 11.258 11.2502 12.217 10.0752 12.433" stroke="#7C8996" stroke-width="1.5" stroke-linecap="round" stroke-linejoin="round"/>
<path d="M17.8334 1.16699L11.6084 7.392" stroke="#7C8996" stroke-width="1.5" stroke-linecap="round" stroke-linejoin="round"/>
</svg>
