<svg width="24" height="25" viewBox="0 0 24 25" fill="none" xmlns="http://www.w3.org/2000/svg">
<g clip-path="url(#clip0_266_701)">
<path d="M12 2.91225C15.2041 2.91225 15.5836 2.92444 16.8489 2.98209C18.0189 3.03553 18.6544 3.231 19.0773 3.39534C19.6373 3.61303 20.0371 3.87309 20.457 4.293C20.8769 4.71291 21.137 5.11266 21.3547 5.67272C21.519 6.09562 21.7145 6.73106 21.7679 7.90097C21.8256 9.16641 21.8377 9.54591 21.8377 12.75C21.8377 15.9541 21.8256 16.3337 21.7679 17.599C21.7145 18.769 21.519 19.4044 21.3547 19.8273C21.137 20.3873 20.8769 20.7872 20.457 21.2071C20.0371 21.627 19.6373 21.8871 19.0773 22.1047C18.6544 22.269 18.0189 22.4646 16.8489 22.5179C15.5838 22.5757 15.2043 22.5878 12 22.5878C8.79572 22.5878 8.41613 22.5757 7.15097 22.5179C5.98097 22.4645 5.34562 22.269 4.92272 22.1047C4.36266 21.8871 3.96281 21.627 3.54291 21.2071C3.123 20.7871 2.86294 20.3873 2.64534 19.8273C2.481 19.4045 2.28544 18.769 2.23209 17.599C2.17434 16.3337 2.16216 15.9542 2.16216 12.75C2.16216 9.54581 2.17434 9.16641 2.23209 7.90106C2.28553 6.73106 2.481 6.09562 2.64534 5.67272C2.86294 5.11266 3.123 4.71291 3.54291 4.293C3.96291 3.873 4.36266 3.61303 4.92272 3.39534C5.34553 3.231 5.98097 3.03553 7.15097 2.98209C8.41631 2.92444 8.79581 2.91225 12 2.91225ZM12 0.75C8.74097 0.75 8.33231 0.763781 7.05244 0.822187C5.77509 0.8805 4.90275 1.08337 4.13953 1.38C3.35034 1.68666 2.68116 2.097 2.01403 2.76412C1.34691 3.43125 0.936656 4.10044 0.63 4.88953C0.333281 5.65284 0.1305 6.52519 0.0721875 7.80244C0.0137812 9.08231 0 9.49097 0 12.75C0 16.009 0.0137812 16.4177 0.0721875 17.6976C0.1305 18.9749 0.333281 19.8472 0.63 20.6105C0.936562 21.3996 1.34691 22.0688 2.01403 22.736C2.68116 23.4031 3.35034 23.8133 4.13953 24.12C4.90284 24.4167 5.77509 24.6195 7.05234 24.6778C8.33231 24.7362 8.74097 24.75 12 24.75C15.259 24.75 15.6677 24.7362 16.9476 24.6778C18.2248 24.6195 19.0972 24.4167 19.8604 24.12C20.6496 23.8134 21.3188 23.4031 21.9859 22.736C22.653 22.0688 23.0633 21.3997 23.37 20.6105C23.6666 19.8472 23.8695 18.9749 23.9278 17.6977C23.9862 16.4177 24 16.009 24 12.75C24 9.49097 23.9862 9.08231 23.9278 7.80244C23.8695 6.52519 23.6666 5.65284 23.37 4.88962C23.0633 4.10044 22.653 3.43125 21.9859 2.76412C21.3188 2.097 20.6496 1.68656 19.8605 1.38C19.0972 1.08337 18.2248 0.8805 16.9476 0.822187C15.6677 0.763781 15.259 0.75 12 0.75ZM12 6.58781C8.59669 6.58781 5.83781 9.34688 5.83781 12.75C5.83781 16.1531 8.59669 18.9122 12 18.9122C15.4032 18.9122 18.1622 16.1533 18.1622 12.75C18.1622 9.34678 15.4032 6.58781 12 6.58781ZM12 16.75C9.79088 16.75 7.99997 14.9591 7.99997 12.75C7.99997 10.5409 9.79088 8.74997 12 8.74997C14.2091 8.74997 16 10.5409 16 12.75C16 14.9591 14.2091 16.75 12 16.75ZM19.8456 6.34434C19.8456 7.13972 19.2009 7.78434 18.4056 7.78434C17.6102 7.78434 16.9656 7.13972 16.9656 6.34434C16.9656 5.54897 17.6103 4.90434 18.4056 4.90434C19.2008 4.90434 19.8456 5.54906 19.8456 6.34434Z" fill="#35485B"/>
</g>
<defs>
<clipPath id="clip0_266_701">
<rect width="24" height="24" fill="white" transform="translate(0 0.75)"/>
</clipPath>
</defs>
</svg>
