<svg width="28" height="29" viewBox="0 0 28 29" fill="none" xmlns="http://www.w3.org/2000/svg">
<path d="M6.5625 5.125C5.98375 5.12958 5.43001 5.36151 5.02076 5.77076C4.61151 6.18001 4.37958 6.73375 4.375 7.3125V22.1875C4.375 23.3836 5.36638 24.375 6.5625 24.375H21.4375C22.6336 24.375 23.625 23.3836 23.625 22.1875V7.3125C23.625 6.11638 22.6336 5.125 21.4375 5.125H6.5625ZM6.5625 6.875H21.4375C21.6869 6.875 21.875 7.06313 21.875 7.3125V22.1875C21.8762 22.2453 21.8657 22.3027 21.8441 22.3563C21.8226 22.4099 21.7904 22.4586 21.7495 22.4995C21.7086 22.5404 21.6599 22.5726 21.6063 22.5941C21.5527 22.6157 21.4953 22.6262 21.4375 22.625H6.5625C6.50472 22.6262 6.44729 22.6157 6.39368 22.5941C6.34006 22.5726 6.29135 22.5404 6.25049 22.4995C6.20962 22.4586 6.17744 22.4099 6.15587 22.3563C6.13431 22.3027 6.12381 22.2453 6.125 22.1875V7.3125C6.125 7.06313 6.31313 6.875 6.5625 6.875ZM9.13325 8.37912C8.93273 8.37429 8.73327 8.4096 8.5466 8.483C8.35993 8.55639 8.18983 8.66638 8.0463 8.80649C7.90277 8.9466 7.78871 9.114 7.71084 9.29884C7.63297 9.48368 7.59285 9.68223 7.59285 9.88281C7.59285 10.0834 7.63297 10.2819 7.71084 10.4668C7.78871 10.6516 7.90277 10.819 8.0463 10.9591C8.18983 11.0992 8.35993 11.2092 8.5466 11.2826C8.73327 11.356 8.93273 11.3913 9.13325 11.3865C9.52577 11.377 9.89903 11.2144 10.1733 10.9335C10.4476 10.6525 10.6011 10.2754 10.6011 9.88281C10.6011 9.49018 10.4476 9.1131 10.1733 8.83214C9.89903 8.55118 9.52577 8.38859 9.13325 8.37912ZM17.0345 12.3709C15.7806 12.3709 14.9467 13.0578 14.602 13.7105H14.5469V12.5625H12.0855V20.875H14.6562V16.773C14.6562 15.6898 14.8715 14.6406 16.2146 14.6406C17.5376 14.6406 17.5551 15.8639 17.5551 16.8281V20.875H20.125V16.3084C20.125 14.0736 19.649 12.3709 17.0345 12.3709ZM7.875 12.5625V20.875H10.4729V12.5625H7.875Z" fill="#35485B"/>
</svg>
