<svg width="28" height="29" viewBox="0 0 28 29" fill="none" xmlns="http://www.w3.org/2000/svg">
<path d="M19.2067 11.0705L17.935 19.2126C17.9175 19.3249 17.8724 19.431 17.8037 19.5215C17.735 19.612 17.6449 19.684 17.5415 19.7311C17.4381 19.7782 17.3246 19.7989 17.2113 19.7912C17.0979 19.7836 16.9882 19.748 16.892 19.6875L12.6337 17.0193C12.5452 16.9639 12.4705 16.8891 12.4153 16.8005C12.3601 16.7119 12.3258 16.6118 12.3152 16.508C12.3045 16.4041 12.3176 16.2992 12.3536 16.2012C12.3896 16.1032 12.4475 16.0147 12.5229 15.9425L16.0579 12.5545C16.0975 12.5171 16.0509 12.4553 16.0042 12.4833L10.8802 15.5493C10.5757 15.7324 10.214 15.796 9.86521 15.7278L8.01021 15.3696C7.34054 15.2401 7.24838 14.3208 7.87721 14.0606L17.7962 9.95981C17.9652 9.88951 18.1499 9.86554 18.3312 9.89039C18.5125 9.91523 18.6839 9.98799 18.8278 10.1012C18.9716 10.2143 19.0826 10.3638 19.1495 10.5342C19.2163 10.7046 19.2364 10.8897 19.2079 11.0705" fill="#35485B"/>
<path fill-rule="evenodd" clip-rule="evenodd" d="M13.9999 2.74023C7.3674 2.74023 1.99023 8.1174 1.99023 14.7499C1.99023 21.3824 7.3674 26.7596 13.9999 26.7596C20.6324 26.7596 26.0096 21.3824 26.0096 14.7499C26.0096 8.1174 20.6324 2.74023 13.9999 2.74023ZM4.04823 14.7499C4.04823 13.443 4.30564 12.149 4.80576 10.9416C5.30588 9.73417 6.03891 8.63711 6.96301 7.71301C7.88711 6.78891 8.98417 6.05588 10.1916 5.55576C11.399 5.05564 12.693 4.79823 13.9999 4.79823C15.3068 4.79823 16.6008 5.05564 17.8082 5.55576C19.0156 6.05588 20.1127 6.78891 21.0368 7.71301C21.9609 8.63711 22.6939 9.73417 23.194 10.9416C23.6942 12.149 23.9516 13.443 23.9516 14.7499C23.9516 17.3892 22.9031 19.9205 21.0368 21.7868C19.1705 23.6531 16.6392 24.7016 13.9999 24.7016C11.3606 24.7016 8.82931 23.6531 6.96301 21.7868C5.09671 19.9205 4.04823 17.3892 4.04823 14.7499Z" fill="#35485B"/>
</svg>
